<svg xmlns="http://www.w3.org/2000/svg" width="260" height="100" fill="none" viewBox="0 0 260 100"><g fill-rule="evenodd" clip-path="url(#a)" clip-rule="evenodd"><path fill="#231f20" d="M120.227.241c2.456 2.518 3.333 7.548 3.333 14.282v51.282h3.34V13.7c0-7.552-2.52-11.352-6.673-13.46m2.043 0c3.394 2.283 6.327 5.848 6.327 13.46v52.104h3.393V13.7c0-8.43-4.216-11.763-9.72-13.46m2.752 0c3.16 1.464 8.604 4.21 8.604 13.46v52.104h3.401V13.7c0-11.358-8.845-13.05-12.005-13.46m6.674 83.713c-5.444 0-8.898 3.516-8.898 8.083 0 4.625 3.392 7.722 8.777 7.722 1.406 0 2.987-.231 4.509-.641V92.27c0-.994-.872-1.817-1.81-1.817h-3.106c.647.584.882 1.112.882 1.99V97.3c-.35.06-.701.06-.995.06-2.516 0-4.042-2.164-4.042-5.677 0-3.338 2.048-5.097 4.683-5.097 1.287 0 2.519.352 3.453.995v-3.039c-1.053-.41-2.225-.588-3.453-.588m-23.828.355c.644.527.882.875.882 1.402 0 .293-.064.53-.414 1.584l-4.095 12.117h2.805l1.237-3.748h5.029l1.29 3.748h4.275l-4.743-13.347c-.525-1.521-1.694-1.757-2.104-1.757zm34.075 0c.644.585.822 1.053.822 1.99v13.113h4.094v-6.327h4.63v6.327h4.034V84.369h-4.034v6.145h-4.63V86.24c0-1.054-.874-1.93-1.93-1.93zm-31.202 3.86 1.757 5.15h-3.454z"/><path fill="#b01028" d="M142.064 15.345v44.548c0 6.733-.882 11.766-3.401 14.342 4.216-2.108 6.733-5.908 6.733-13.46v-45.43zm5.029 0v45.43c0 7.552-2.925 11.118-6.319 13.46 5.504-1.698 9.712-5.088 9.712-13.46v-45.43zm5.037 0v45.43c0 9.25-5.452 11.938-8.611 13.46 3.159-.469 12.004-2.102 12.004-13.46v-45.43z"/><path fill="#006b3b" d="M105.063 15.345v45.43c0 11.358 8.834 12.991 11.997 13.46-3.163-1.522-8.664-4.21-8.664-13.46v-45.43zm5.03 0v45.43c0 8.372 4.218 11.762 9.659 13.46-3.335-2.343-6.259-5.908-6.259-13.46v-45.43zm5.037 0v45.43c0 7.552 2.517 11.352 6.733 13.46-2.516-2.576-3.34-7.609-3.34-14.342V15.345z"/></g><defs><clipPath id="a"><path fill="#fff" d="M104 0h51.764v100H104z"/></clipPath></defs></svg>