<svg xmlns="http://www.w3.org/2000/svg" width="24" height="24" viewBox="0 0 24 24"><path d="m19.62 22.52-.26-.01a20 20 0 0 1-8.71-3.1 20 20 0 0 1-6.04-6.05 20 20 0 0 1-3.09-8.73q-.06-.62.14-1.19a2.8 2.8 0 0 1 1.56-1.71 3 3 0 0 1 1.16-.25h2.88c.67-.02 1.37.24 1.9.7s.88 1.09.97 1.78q.17 1.29.62 2.49.29.78.12 1.61a3 3 0 0 1-.77 1.42l-.69.69a14 14 0 0 0 4.4 4.4l.69-.69a2.9 2.9 0 0 1 3.04-.65q1.2.45 2.49.62a2.87 2.87 0 0 1 2.48 2.91v2.87a3 3 0 0 1-.93 2.13 2.8 2.8 0 0 1-1.95.76ZM7.27 3.4h-2.9q-.2 0-.39.08a1 1 0 0 0-.32.23 1 1 0 0 0-.2.34q-.06.2-.05.39a18 18 0 0 0 2.8 7.88 18 18 0 0 0 5.47 5.47 18 18 0 0 0 7.87 2.8q.18.01.38-.05a1 1 0 0 0 .34-.2 1 1 0 0 0 .23-.32 1 1 0 0 0 .08-.39v-2.91a1 1 0 0 0-.23-.64 1 1 0 0 0-.6-.33q-1.48-.2-2.9-.72a1 1 0 0 0-1.01.22l-1.21 1.21a1 1 0 0 1-1.15.16 16.3 16.3 0 0 1-6.12-6.12.95.95 0 0 1 .16-1.15l1.22-1.22a1 1 0 0 0 .25-.47 1 1 0 0 0-.04-.54q-.52-1.42-.72-2.91a.96.96 0 0 0-.95-.81Z"/></svg>